<?xml version="1.0" encoding="UTF-8"?>
<svg id="Camada_1" data-name="Camada 1" xmlns="http://www.w3.org/2000/svg" viewBox="0 0 800 800">
  <defs>
    <style>
      .cls-1, .cls-2 {
        fill: #000;
      }

      .cls-1, .cls-3 {
        stroke: #000;
        stroke-miterlimit: 10;
      }

      .cls-2, .cls-4 {
        stroke-width: 0px;
      }

      .cls-3 {
        fill: none;
        stroke-width: 60px;
      }

      .cls-4 {
        fill: #84ff81;
      }
    </style>
  </defs>
  <circle class="cls-4" cx="400" cy="400" r="400"/>
  <polygon class="cls-1" points="187.7 709.73 131.89 185.11 378.73 130.8 351.4 191.65 528.35 144.3 488.68 193.33 646.45 143 381.88 388.92 409.23 327.51 243.4 377.83 263.61 343.7 213 376.91 187.7 709.73"/>
  <path class="cls-3" d="M219,674h325c9.22-.96,65.36-7.72,96-55,19.39-29.93,18.52-60.58,18-79-1.84-64.66-40.33-107.75-47-115-50.8-55.19-118.48-57.75-131-58,63.11,11.98,124.33-15.31,151-65,27-50.31,7.31-102.61,4-111"/>
  <circle class="cls-2" cx="515" cy="530" r="88"/>
  <circle class="cls-2" cx="312" cy="530" r="88"/>
  <rect class="cls-2" x="312" y="442" width="203" height="176"/>
</svg>